<?xml version="1.0" standalone="no"?>
<!DOCTYPE svg PUBLIC "-//W3C//DTD SVG 20010904//EN"
 "http://www.w3.org/TR/2001/REC-SVG-20010904/DTD/svg10.dtd">
<svg version="1.0" xmlns="http://www.w3.org/2000/svg"
 width="920.000000pt" height="920.000000pt" viewBox="0 0 920.000000 920.000000"
 preserveAspectRatio="xMidYMid meet">

<g transform="translate(0.000000,920.000000) scale(0.100000,-0.100000)"
fill="#000000" stroke="none">
<path d="M4215 9184 c-764 -63 -1486 -311 -2130 -732 -503 -328 -974 -792
-1305 -1287 -439 -654 -700 -1400 -764 -2185 -71 -863 100 -1724 493 -2485
268 -518 621 -970 1058 -1355 461 -406 1030 -729 1613 -918 464 -150 846 -211
1360 -217 458 -5 783 31 1182 131 548 137 1115 400 1556 721 413 301 803 693
1089 1098 260 366 498 851 630 1280 100 325 154 612 193 1025 13 144 4 681
-14 840 -100 848 -399 1602 -902 2270 -584 777 -1409 1352 -2344 1635 -548
166 -1136 227 -1715 179z m531 -3565 c437 -61 792 -406 869 -844 92 -530 -245
-1045 -770 -1176 -115 -29 -296 -35 -413 -15 -214 37 -387 124 -544 274 -187
179 -299 421 -315 682 -24 406 193 786 557 974 191 99 402 135 616 105z
m-1420 -1206 c12 -102 63 -265 119 -379 152 -313 425 -550 757 -658 145 -47
232 -61 398 -61 166 0 253 14 396 60 254 83 485 248 641 460 111 148 207 377
234 553 l12 82 1530 0 1530 0 -7 -126 c-39 -742 -286 -1485 -704 -2124 -328
-501 -751 -924 -1252 -1252 -565 -370 -1151 -586 -1845 -680 -150 -20 -211
-23 -525 -23 -284 0 -384 4 -500 18 -214 27 -365 54 -542 98 -778 192 -1471
582 -2038 1149 -756 757 -1204 1754 -1266 2823 l-7 117 1531 0 1531 0 7 -57z"/>
</g>
</svg>
